# xmcd CD database file
#
# Track frame offsets:
#	150
#	6587
#	23997
#	46131
#	65222
#	86388
#	113441
#	130308
#	150171
#	172122
#	200240
#	224010
#
# Disc length: 3256 seconds
#
# Revision: 3
# Processed by: cddbd v1.5.1PL2 Copyright (c) Steve Scherf et al.
# Submitted via: Feurio! 1.68 - http://www.feurio.com
#
DISCID=a90cb60c
DTITLE=Bet Williams - Blues Garage Isernhagen Germany June 6 2006 1
DYEAR=1900
DGENRE=
TTITLE0=Intro
TTITLE1=Ooh la La
TTITLE2=Intuition
TTITLE3=Corrina
TTITLE4=El Dorado
TTITLE5=The Maker
TTITLE6=Dragonflies
TTITLE7=Spiritual Thing
TTITLE8=Bleed
TTITLE9=Tubwahun
TTITLE10=Desire
TTITLE11=Come Into My Kitchen
EXTD=
EXTT0=
EXTT1=
EXTT2=
EXTT3=
EXTT4=
EXTT5=
EXTT6=
EXTT7=
EXTT8=
EXTT9=
EXTT10=
EXTT11=
PLAYORDER=
